# xmcd
#
# Track frame offsets:
#	150
#	17224
#	36288
#	54637
#	82602
#	99732
#	122783
#	146329
#	158411
#	179497
#	208921
#	239194
#	274633
#
# Disc length: 3837 seconds
#
# Revision: 1
# Processed by: cddbd v1.4PL0 Copyright (c) Steve Scherf et al.
# Submitted via: EasyCDDAExtractor 5.0.7
#
DISCID=b40efb0d
DTITLE=Hootie and The Blowfish - Blue Mirage CD 1
DYEAR=1995
DGENRE=AlternRock
TTITLE0=Hannah Jane
TTITLE1=You Got Me Screaming
TTITLE2=I Go Blind
TTITLE3=Let Her Cry
TTITLE4=If You're Going My Way
TTITLE5=Not Even The Trees
TTITLE6=A Fine Line
TTITLE7=Look Away
TTITLE8=Running From An Angel
TTITLE9=Motherless Child-I'm Going Home
TTITLE10=The Old Man And Me
TTITLE11=Drowning
TTITLE12=Let My People Go
EXTD=
EXTT0=
EXTT1=
EXTT2=
EXTT3=
EXTT4=
EXTT5=
EXTT6=
EXTT7=
EXTT8=
EXTT9=
EXTT10=
EXTT11=
EXTT12=
PLAYORDER=
